<?xml version="1.0" standalone="no"?>
<!DOCTYPE svg PUBLIC "-//W3C//DTD SVG 20010904//EN"
 "http://www.w3.org/TR/2001/REC-SVG-20010904/DTD/svg10.dtd">
<svg version="1.0" xmlns="http://www.w3.org/2000/svg"
 width="600.000000pt" height="600.000000pt" viewBox="0 0 600.000000 600.000000"
 preserveAspectRatio="xMidYMid meet">
<metadata>
Created by potrace 1.14, written by Peter Selinger 2001-2017
</metadata>
<g transform="translate(0.000000,600.000000) scale(0.100000,-0.100000)"
fill="#000000" stroke="none">
<path d="M0 3000 l0 -3000 3000 0 3000 0 0 3000 0 3000 -3000 0 -3000 0 0
-3000z m2174 1460 c93 -14 155 -50 232 -135 35 -38 182 -225 325 -415 144
-190 404 -532 578 -761 l316 -417 5 747 c4 528 9 756 17 779 30 85 112 170
190 196 59 20 157 20 216 0 66 -22 134 -87 168 -159 l29 -60 0 -1235 0 -1235
-24 -51 c-34 -72 -78 -119 -148 -154 -148 -73 -321 -16 -408 135 -14 24 -228
308 -476 632 -248 323 -536 700 -640 837 l-189 248 -5 -828 -5 -829 -24 -49
c-54 -110 -149 -169 -271 -170 -61 -1 -85 4 -131 25 -66 31 -120 84 -151 148
l-23 46 0 1245 0 1245 23 43 c52 97 134 157 236 172 73 11 83 11 160 0z"/>
</g>
</svg>
